<?xml version="1.0" encoding="utf-8"?>
<!-- Generator: Adobe Illustrator 15.0.0, SVG Export Plug-In . SVG Version: 6.00 Build 0)  -->
<!DOCTYPE svg PUBLIC "-//W3C//DTD SVG 1.1//EN" "http://www.w3.org/Graphics/SVG/1.1/DTD/svg11.dtd">
<svg version="1.1" id="Layer_1" xmlns="http://www.w3.org/2000/svg" xmlns:xlink="http://www.w3.org/1999/xlink" x="0px" y="0px"
	 width="203px" height="44px" viewBox="0 0 203 44" enable-background="new 0 0 203 44" xml:space="preserve">
<rect y="21" fill="#5D6974" width="203" height="2"/>
<rect x="20.083" y="11" fill="#5D6974" width="55.917" height="2"/>
<rect x="20.083" y="31" fill="#5D6974" width="55.917" height="2"/>
<rect x="127" y="11" fill="#5D6974" width="55.917" height="2"/>
<rect x="127" y="31" fill="#5D6974" width="55.917" height="2"/>
<g>
	<path fill="#5D6974" d="M102,2c11.028,0,20,8.972,20,20c0,11.028-8.972,20-20,20s-20-8.972-20-20C82,10.972,90.972,2,102,2 M102,0
		C89.85,0,80,9.85,80,22s9.85,22,22,22s22-9.85,22-22S114.15,0,102,0L102,0z"/>
</g>
<g>
	<path fill="#5D6974" d="M102,13c4.963,0,9,4.038,9,9c0,4.963-4.037,9-9,9c-4.962,0-9-4.037-9-9C93,17.038,97.038,13,102,13 M102,11
		c-6.075,0-11,4.925-11,11s4.925,11,11,11s11-4.925,11-11S108.075,11,102,11L102,11z"/>
</g>
</svg>
