<?xml version="1.0" encoding="utf-8"?>
<!-- Generator: Adobe Illustrator 15.0.0, SVG Export Plug-In . SVG Version: 6.00 Build 0)  -->
<!DOCTYPE svg PUBLIC "-//W3C//DTD SVG 1.1//EN" "http://www.w3.org/Graphics/SVG/1.1/DTD/svg11.dtd">
<svg version="1.1" id="Layer_1" xmlns="http://www.w3.org/2000/svg" xmlns:xlink="http://www.w3.org/1999/xlink" x="0px" y="0px"
	 width="122px" height="6px" viewBox="0 0 122 6" enable-background="new 0 0 122 6" xml:space="preserve">
<path fill="#515C66" d="M121,6c-2.85,0-4.322-1.18-5.622-2.219C114.184,2.825,113.153,2,111.006,2c-2.148,0-3.18,0.825-4.374,1.781
	C105.332,4.82,103.858,6,101.008,6c-2.852,0-4.324-1.179-5.625-2.219C94.188,2.825,93.156,2,91.007,2s-3.181,0.825-4.374,1.781
	C85.332,4.82,83.859,6,81.01,6c-2.853,0-4.326-1.179-5.627-2.219C74.188,2.825,73.154,2,71.004,2s-3.182,0.825-4.377,1.781
	C65.326,4.821,63.852,6,61,6c-0.552,0-1-0.447-1-1s0.448-1,1-1c2.15,0,3.182-0.825,4.377-1.781C66.678,1.179,68.152,0,71.004,0
	c2.853,0,4.326,1.179,5.627,2.219C77.826,3.175,78.859,4,81.01,4c2.148,0,3.18-0.825,4.373-1.781C86.684,1.179,88.156,0,91.007,0
	s4.325,1.179,5.625,2.219C97.826,3.175,98.858,4,101.008,4c2.148,0,3.18-0.825,4.374-1.781c1.3-1.04,2.773-2.219,5.624-2.219
	c2.85,0,4.322,1.179,5.622,2.219C117.822,3.175,118.853,4,121,4c0.553,0,1,0.447,1,1S121.553,6,121,6z"/>
<path fill="#515C66" d="M61,6c-2.85,0-4.322-1.18-5.622-2.219C54.184,2.825,53.153,2,51.006,2c-2.148,0-3.18,0.825-4.374,1.781
	C45.332,4.82,43.858,6,41.008,6c-2.852,0-4.324-1.179-5.625-2.219C34.188,2.825,33.156,2,31.007,2c-2.149,0-3.18,0.825-4.374,1.781
	C25.333,4.82,23.859,6,21.009,6c-2.852,0-4.326-1.179-5.627-2.219C14.187,2.825,13.155,2,11.004,2S7.822,2.825,6.626,3.781
	C5.326,4.821,3.852,6,1,6C0.448,6,0,5.553,0,5s0.448-1,1-1c2.15,0,3.182-0.825,4.377-1.781C6.678,1.179,8.152,0,11.004,0
	s4.326,1.179,5.627,2.219C17.827,3.175,18.859,4,21.009,4c2.148,0,3.18-0.825,4.374-1.781C26.683,1.179,28.156,0,31.007,0
	s4.325,1.179,5.625,2.219C37.826,3.175,38.858,4,41.008,4c2.148,0,3.18-0.825,4.374-1.781C46.682,1.179,48.155,0,51.006,0
	c2.85,0,4.322,1.179,5.622,2.219C57.822,3.175,58.853,4,61,4c0.553,0,1,0.447,1,1S61.553,6,61,6z"/>
</svg>
