<?xml version="1.0" encoding="utf-8"?>
<!-- Generator: Adobe Illustrator 15.0.0, SVG Export Plug-In . SVG Version: 6.00 Build 0)  -->
<!DOCTYPE svg PUBLIC "-//W3C//DTD SVG 1.1//EN" "http://www.w3.org/Graphics/SVG/1.1/DTD/svg11.dtd">
<svg version="1.1" id="Layer_1" xmlns="http://www.w3.org/2000/svg" xmlns:xlink="http://www.w3.org/1999/xlink" x="0px" y="0px"
	 width="203px" height="44px" viewBox="0 0 203 44" enable-background="new 0 0 203 44" xml:space="preserve">
<rect y="21" fill="#5D6974" width="203" height="2"/>
<rect x="20.083" y="11" fill="#5D6974" width="55.917" height="2"/>
<rect x="20.083" y="31" fill="#5D6974" width="55.917" height="2"/>
<rect x="127" y="11" fill="#5D6974" width="55.917" height="2"/>
<rect x="127" y="31" fill="#5D6974" width="55.917" height="2"/>
<g>
	<path fill="#5D6974" d="M110.475,25c-1.239,3.49-4.564,6-8.475,6c-3.909,0-7.235-2.51-8.475-6h-2.1c1.307,4.615,5.542,8,10.575,8
		c5.034,0,9.268-3.385,10.575-8H110.475z"/>
	<path fill="#5D6974" d="M93.059,23C93.022,22.671,93,22.338,93,22c0-4.962,4.038-9,9-9c4.963,0,9,4.038,9,9
		c0,0.338-0.022,0.671-0.059,1h2.008c0.03-0.33,0.051-0.663,0.051-1c0-6.075-4.925-11-11-11s-11,4.925-11,11
		c0,0.337,0.021,0.67,0.05,1H93.059z"/>
</g>
<g>
	<path fill="#5D6974" d="M82.051,23C82.034,22.667,82,22.337,82,22c0-11.028,8.972-20,20-20c11.028,0,20,8.972,20,20
		c0,0.337-0.034,0.667-0.051,1h2.025c0.015-0.332,0.025-0.665,0.025-1c0-12.15-9.85-22-22-22S80,9.85,80,22
		c0,0.335,0.01,0.668,0.025,1H82.051z"/>
	<path fill="#5D6974" d="M121.75,25c-1.455,9.606-9.744,17-19.75,17s-18.295-7.394-19.75-17h-2.041C81.673,35.73,90.868,44,102,44
		c11.132,0,20.327-8.27,21.791-19H121.75z"/>
</g>
</svg>
